<svg width="24" height="24" viewBox="0 0 24 24" fill="none" xmlns="http://www.w3.org/2000/svg">
<path d="M 17.6601 22.6703 C 17.1301 22.6703 16.4501 22.5003 15.6001 22.0003 L 12.6101 20.2303 C 12.3001 20.0503 11.7001 20.0503 11.4001 20.2303 L 8.4001 22.0003 C 6.6301 23.0503 5.5901 22.6303 5.1201 22.2903 C 4.6601 21.9503 3.9401 21.0803 4.4101 19.0803 L 5.1201 16.0103 C 5.2001 15.6903 5.0401 15.1403 4.8001 14.9003 L 2.3201 12.4203 C 1.0801 11.1803 1.1801 10.1203 1.3501 9.6003 C 1.5201 9.0803 2.0601 8.1603 3.7801 7.8703 L 6.9701 7.3403 C 7.2701 7.2903 7.7001 6.9703 7.8301 6.7003 L 9.6001 3.1703 C 10.4001 1.5603 11.4501 1.3203 12.0001 1.3203 C 12.5501 1.3203 13.6001 1.5603 14.4001 3.1703 L 16.1601 6.6903 C 16.3001 6.9603 16.7301 7.2803 17.0301 7.3303 L 20.2201 7.8603 C 21.9501 8.1503 22.4901 9.0703 22.6501 9.5903 C 22.8101 10.1103 22.9101 11.1703 21.6801 12.4103 L 19.2001 14.9003 C 18.9601 15.1403 18.8101 15.6803 18.8801 16.0103 L 19.5901 19.0803 C 20.0501 21.0803 19.3401 21.9503 18.8801 22.2903 C 18.6301 22.4703 18.2301 22.6703 17.6601 22.6703 Z Z" fill="#ffcd00" />
</svg>
